# 3ds Max Wavefront OBJ Exporter v0.97b - (c)2007 guruware
# File Created: 15.01.2015 22:04:56

mtllib displayFront.mtl

#
# object display
#

v  -2.348844 0.786623 1.171591
v  -2.348844 0.786623 2.346591
v  -1.173844 0.786623 1.171591
v  -1.173844 0.786623 2.346591
v  0.001156 0.786623 1.171591
v  0.001156 0.786623 2.346591
v  1.176156 0.786623 1.171591
v  1.176156 0.786623 2.346591
v  2.351156 0.786623 1.171591
v  2.351156 0.786623 2.346591
v  -2.348844 0.786623 -0.003409
v  -1.173844 0.786623 -0.003409
v  0.001156 0.786623 -0.003409
v  1.176156 0.786623 -0.003409
v  2.351156 0.786623 -0.003409
v  -2.348844 0.786623 -1.178409
v  -1.173844 0.786623 -1.178409
v  0.001156 0.786623 -1.178409
v  1.176156 0.786623 -1.178409
v  2.351156 0.786623 -1.178409
v  -2.348844 0.786623 -2.353409
v  -1.173844 0.786623 -2.353409
v  0.001156 0.786623 -2.353409
v  1.176156 0.786623 -2.353409
v  2.351156 0.786623 -2.353409
# 25 vertices

vn 0.000000 1.000000 -0.000000
# 1 vertex normals

vt 0.000000 0.250000 0.000000
vt 0.000000 0.000000 0.000000
vt 0.250000 0.250000 0.000000
vt 0.250000 0.000000 0.000000
vt 0.500000 0.250000 0.000000
vt 0.500000 0.000000 0.000000
vt 0.750000 0.250000 0.000000
vt 0.750000 0.000000 0.000000
vt 1.000000 0.250000 0.000000
vt 1.000000 0.000000 0.000000
vt 0.000000 0.500000 0.000000
vt 0.250000 0.500000 0.000000
vt 0.500000 0.500000 0.000000
vt 0.750000 0.500000 0.000000
vt 1.000000 0.500000 0.000000
vt 0.000000 0.750000 0.000000
vt 0.250000 0.750000 0.000000
vt 0.500000 0.750000 0.000000
vt 0.750000 0.750000 0.000000
vt 1.000000 0.750000 0.000000
vt 0.000000 1.000000 0.000000
vt 0.250000 1.000000 0.000000
vt 0.500000 1.000000 0.000000
vt 0.750000 1.000000 0.000000
vt 1.000000 1.000000 0.000000
# 25 texture coords

g display
usemtl wire_027177148
s 1
f 1/1/1 2/2/1 3/3/1 
f 4/4/1 3/3/1 2/2/1 
f 3/3/1 4/4/1 5/5/1 
f 6/6/1 5/5/1 4/4/1 
f 5/5/1 6/6/1 7/7/1 
f 8/8/1 7/7/1 6/6/1 
f 7/7/1 8/8/1 9/9/1 
f 10/10/1 9/9/1 8/8/1 
f 11/11/1 1/1/1 12/12/1 
f 3/3/1 12/12/1 1/1/1 
f 12/12/1 3/3/1 13/13/1 
f 5/5/1 13/13/1 3/3/1 
f 13/13/1 5/5/1 14/14/1 
f 7/7/1 14/14/1 5/5/1 
f 14/14/1 7/7/1 15/15/1 
f 9/9/1 15/15/1 7/7/1 
f 16/16/1 11/11/1 17/17/1 
f 12/12/1 17/17/1 11/11/1 
f 17/17/1 12/12/1 18/18/1 
f 13/13/1 18/18/1 12/12/1 
f 18/18/1 13/13/1 19/19/1 
f 14/14/1 19/19/1 13/13/1 
f 19/19/1 14/14/1 20/20/1 
f 15/15/1 20/20/1 14/14/1 
f 21/21/1 16/16/1 22/22/1 
f 17/17/1 22/22/1 16/16/1 
f 22/22/1 17/17/1 23/23/1 
f 18/18/1 23/23/1 17/17/1 
f 23/23/1 18/18/1 24/24/1 
f 19/19/1 24/24/1 18/18/1 
f 24/24/1 19/19/1 25/25/1 
f 20/20/1 25/25/1 19/19/1 
# 32 faces

